# xmcd
# 
# Track frame offsets:
#     150
#     13425
#     22937
#     34917
#     72062
#     91260
#     113232
#     131810
#     149662
#     168507
#     188320
#     199370
#     225505
#     242192
#     250285
#     265677
#     283217
#     298027
# 
# Disc length: 4213
# 
# Revision: 9
# Processed by: cddbd v1.5.2PL0 Copyright (c) Steve Scherf et al.
# Submitted via: fre:ac v1.0.17
# 
DISCID=0e107312
DTITLE=Janis Joplin - 18 essential songs
DYEAR=1995
DGENRE=Rock
TTITLE0=Trouble In Mind
TTITLE1=Down On Me
TTITLE2=Bye , Bye Baby
TTITLE3=Ball And Chain
TTITLE4=Piece Of My Heart
TTITLE5=I Need A Man To love
TTITLE6=Summertime
TTITLE7=Try(Just A Little Bit Harder)
TTITLE8=One Good Man
TTITLE9=Kozmic Blues
TTITLE10=Raise Your Hand
TTITLE11=Tell Mama
TTITLE12=Move Over
TTITLE13=Mercedes Benz
TTITLE14=Get It While You Can
TTITLE15=Half Moon
TTITLE16=Trust Me
TTITLE17=Me And Boby Mcgee
EXTD=YEAR: 1995
EXTT0=
EXTT1=
EXTT2=
EXTT3=
EXTT4=
EXTT5=
EXTT6=
EXTT7=
EXTT8=
EXTT9=
EXTT10=
EXTT11=
EXTT12=
EXTT13=
EXTT14=
EXTT15=
EXTT16=
EXTT17=
PLAYORDER=
